<?xml version="1.0" encoding="utf-8"?>
<!-- Generator: Adobe Illustrator 19.0.0, SVG Export Plug-In . SVG Version: 6.00 Build 0)  -->
<svg version="1.1" xmlns="http://www.w3.org/2000/svg" xmlns:xlink="http://www.w3.org/1999/xlink" x="0px" y="0px"
	 viewBox="0 0 182.7 23" style="enable-background:new 0 0 182.7 23;" xml:space="preserve">
<style type="text/css">
	.st0{fill:url(#SVGID_1_);stroke:#000000;stroke-width:0.25;stroke-miterlimit:10;}
	.st1{fill:none;}
	.st2{fill:#999999;}
	.st3{font-family:'Helvetica';}
	.st4{font-size:12px;}
	.st5{font-size:10px;}
	.st6{fill:url(#SVGID_2_);stroke:#000000;stroke-width:0.25;stroke-miterlimit:10;}
</style>
<g id="Layer_1">
	<linearGradient id="SVGID_1_" gradientUnits="userSpaceOnUse" x1="31.3733" y1="11.3268" x2="147.6335" y2="11.3268">
		<stop  offset="0" style="stop-color:#FFCCCC"/>
		<stop  offset="1" style="stop-color:#ED1C24"/>
		<stop  offset="1" style="stop-color:#000000"/>
	</linearGradient>
	<rect x="31.4" y="2" class="st0" width="116.3" height="18.7"/>
	<rect x="2.2" y="8.2" class="st1" width="29.2" height="11"/>
	<text transform="matrix(1 0 0 1 2.1898 16.8741)"><tspan x="0" y="0" class="st2 st3 st4">500</tspan><tspan x="20" y="0" class="st2 st3 st5">K</tspan></text>
	<rect x="151.9" y="5.8" class="st1" width="38.1" height="11"/>
	<text transform="matrix(1 0 0 1 151.8539 14.4585)"><tspan x="0" y="0" class="st2 st3 st4">36</tspan><tspan x="13.3" y="0" class="st2 st3 st5">Mil</tspan></text>
	<linearGradient id="SVGID_2_" gradientUnits="userSpaceOnUse" x1="31.3733" y1="11.3268" x2="147.6335" y2="11.3268">
		<stop  offset="0" style="stop-color:#FFCCCC"/>
		<stop  offset="1" style="stop-color:#ED1C24"/>
		<stop  offset="1" style="stop-color:#000000"/>
	</linearGradient>
	<rect x="31.4" y="2" class="st6" width="116.3" height="18.7"/>
	<rect x="2.2" y="8.2" class="st1" width="29.2" height="11"/>
	<text transform="matrix(1 0 0 1 2.1898 16.8741)"><tspan x="0" y="0" class="st2 st3 st4">500</tspan><tspan x="20" y="0" class="st2 st3 st5">K</tspan></text>
	<rect x="151.9" y="5.8" class="st1" width="38.1" height="11"/>
	<text transform="matrix(1 0 0 1 151.8539 14.4585)"><tspan x="0" y="0" class="st2 st3 st4">36</tspan><tspan x="13.3" y="0" class="st2 st3 st5">Mil</tspan></text>
</g>
<g id="Layer_2">
</g>
</svg>
